<svg width="121" height="48" viewBox="0 0 121 48" fill="none" xmlns="http://www.w3.org/2000/svg">
<path d="M20.332 8.37891V29.5117C20.332 31.9076 20.2539 33.5938 20.0977 34.5703C19.9414 35.5339 19.4792 36.5299 18.7109 37.5586C17.9427 38.5742 16.9271 39.349 15.6641 39.8828C14.4141 40.4036 12.9362 40.6641 11.2305 40.6641C9.34245 40.6641 7.67578 40.3516 6.23047 39.7266C4.78516 39.1016 3.70443 38.2878 2.98828 37.2852C2.27214 36.2826 1.84896 35.2279 1.71875 34.1211C1.58854 33.0013 1.52344 30.6576 1.52344 27.0898V8.37891H9.74609V32.0898C9.74609 33.4701 9.81771 34.3555 9.96094 34.7461C10.1172 35.1237 10.4232 35.3125 10.8789 35.3125C11.3997 35.3125 11.7318 35.1042 11.875 34.6875C12.0312 34.2578 12.1094 33.2552 12.1094 31.6797V8.37891H20.332Z" fill="#2387B9"/>
<path d="M28.16 21.0259C26.5387 21.0259 25.3333 20.6206 24.544 19.8099C23.7547 18.9993 23.36 17.7246 23.36 15.9859V10.2099L22.304 10.0019V9.00995H27.136V10.0019L25.776 10.2259V16.1939C25.776 18.7326 26.6773 20.0019 28.48 20.0019C29.3653 20.0019 30.0213 19.6766 30.448 19.0259C30.8747 18.3646 31.088 17.4419 31.088 16.2579V10.2259L29.712 10.0019V9.00995H33.712V10.0019L32.624 10.2099V16.1299C32.624 17.7939 32.2187 19.0259 31.408 19.8259C30.608 20.6259 29.5253 21.0259 28.16 21.0259ZM35.3146 10.2099L34.0506 10.0019V9.00995H37.6826L42.4506 16.2099L43.3466 18.0339V10.2099L41.9706 10.0019V9.00995H45.9386V10.0019L44.7066 10.2099V20.8979H42.7706L37.7946 13.3299L36.6746 11.2179V19.7779L38.2906 19.9379V20.8979H34.0506V19.9379L35.3146 19.7779V10.2099ZM47.8704 10.2099L46.5104 10.0019V9.00995H51.6304V10.0019L50.2224 10.2099V19.7779L51.6304 19.9539V20.8979H46.5104V19.9379L47.8704 19.7779V10.2099ZM53.7765 10.2099L52.5445 10.0019V9.00995H57.6645V10.0019L56.1285 10.2099V19.7619L59.5525 19.6179L60.5605 16.6259L61.8565 16.8019L61.3605 20.8979H52.5125V19.9379L53.7765 19.7779V10.2099ZM67.2756 21.0739C65.537 21.0739 64.2356 20.5299 63.3716 19.4419C62.5076 18.3539 62.0756 16.8713 62.0756 14.9939C62.0756 13.7673 62.2996 12.6899 62.7476 11.7619C63.2063 10.8339 63.8463 10.1193 64.6676 9.61795C65.489 9.11662 66.433 8.86595 67.4996 8.86595C69.2596 8.86595 70.577 9.38862 71.4516 10.4339C72.337 11.4686 72.7796 12.9193 72.7796 14.7859C72.7796 16.0233 72.545 17.1219 72.0756 18.0819C71.617 19.0313 70.9716 19.7673 70.1396 20.2899C69.3076 20.8126 68.353 21.0739 67.2756 21.0739ZM67.4356 9.84195C66.561 9.84195 65.8783 10.2739 65.3876 11.1379C64.897 12.0019 64.6516 13.2819 64.6516 14.9779C64.6516 16.6526 64.8863 17.9273 65.3556 18.8019C65.8356 19.6659 66.5183 20.0979 67.4036 20.0979C68.2676 20.0979 68.945 19.6446 69.4356 18.7379C69.9263 17.8206 70.1716 16.5033 70.1716 14.7859C70.1716 13.1219 69.937 11.8846 69.4676 11.0739C68.9983 10.2526 68.321 9.84195 67.4356 9.84195ZM73.3802 19.9379L74.6442 19.7779V10.2099L73.4442 9.98595V9.00995H75.7642C75.9669 9.00995 76.1909 9.00462 76.4362 8.99395C76.6816 8.98328 76.8682 8.97261 76.9962 8.96195C77.5509 8.91928 78.0096 8.89795 78.3722 8.89795C79.4709 8.89795 80.3509 9.00995 81.0122 9.23395C81.6736 9.45795 82.1536 9.79928 82.4522 10.2579C82.7509 10.7166 82.9002 11.3193 82.9002 12.0659C82.9002 12.8019 82.7029 13.4846 82.3082 14.1139C81.9136 14.7433 81.3429 15.1753 80.5962 15.4099C81.0229 15.5913 81.4016 15.9219 81.7322 16.4019C82.0629 16.8819 82.4149 17.5059 82.7882 18.2739C83.0549 18.7966 83.2576 19.1753 83.3962 19.4099C83.5456 19.6339 83.6896 19.7619 83.8282 19.7939L84.3562 19.9539V20.8979H81.6362C81.4656 20.8979 81.2842 20.7273 81.0922 20.3859C80.9109 20.0339 80.6709 19.4846 80.3722 18.7379C80.0202 17.8633 79.7162 17.1806 79.4602 16.6899C79.2042 16.1993 78.9322 15.8953 78.6442 15.7779H76.9962V19.7779L78.4682 19.9379V20.8979H73.3802V19.9379ZM78.4682 14.8019C79.0762 14.8019 79.5509 14.5833 79.8922 14.1459C80.2336 13.7086 80.4042 13.0526 80.4042 12.1779C80.4042 11.3993 80.2336 10.8233 79.8922 10.4499C79.5616 10.0766 78.9856 9.88995 78.1642 9.88995C77.8656 9.88995 77.6096 9.90595 77.3962 9.93795C77.1936 9.95928 77.0602 9.96995 76.9962 9.96995V14.7699C77.1242 14.7913 77.4336 14.8019 77.9242 14.8019H78.4682ZM85.9035 10.2099L84.5435 10.0019V9.00995H89.6635V10.0019L88.2555 10.2099V19.7779L89.6635 19.9539V20.8979H84.5435V19.9379L85.9035 19.7779V10.2099ZM91.8096 10.2099L90.5456 10.0019V9.00995H94.1776L98.9456 16.2099L99.8416 18.0339V10.2099L98.4656 10.0019V9.00995H102.434V10.0019L101.202 10.2099V20.8979H99.2656L94.2896 13.3299L93.1696 11.2179V19.7779L94.7856 19.9379V20.8979H90.5456V19.9379L91.8096 19.7779V10.2099Z" fill="#2387B9"/>
<path d="M23.2373 34.8147C23.5153 34.9879 23.8822 35.1383 24.3379 35.2659C24.7936 35.3889 25.2448 35.4504 25.6914 35.4504C26.3659 35.4504 26.8786 35.3342 27.2295 35.1018C27.585 34.8694 27.7627 34.5048 27.7627 34.0081C27.7627 33.6799 27.6761 33.3997 27.5029 33.1672C27.3343 32.9348 27.0996 32.7275 26.7988 32.5452C26.498 32.3629 26.0514 32.1282 25.459 31.8411C24.6979 31.4719 24.0736 31.0299 23.5859 30.5149C23.0983 29.9999 22.8545 29.3984 22.8545 28.7102C22.8545 28.0813 23.0186 27.5686 23.3467 27.1721C23.6748 26.7711 24.0986 26.4817 24.6182 26.304C25.1377 26.1262 25.7028 26.0374 26.3135 26.0374C26.8831 26.0374 27.373 26.092 27.7832 26.2014C28.1934 26.3062 28.5101 26.4316 28.7334 26.5774L28.4258 27.7805C28.1296 27.6028 27.8265 27.4683 27.5166 27.3772C27.2067 27.2815 26.7988 27.2336 26.293 27.2336C25.9466 27.2336 25.623 27.2792 25.3223 27.3704C25.0215 27.4615 24.7777 27.6028 24.5908 27.7942C24.404 27.9856 24.3105 28.2226 24.3105 28.5051C24.3105 28.8378 24.3766 29.1158 24.5088 29.3391C24.641 29.5579 24.8438 29.7607 25.1172 29.9475C25.3952 30.1298 25.8167 30.3668 26.3818 30.6584C26.9652 30.9592 27.4528 31.2441 27.8447 31.5129C28.2412 31.7773 28.5762 32.1031 28.8496 32.4905C29.123 32.8778 29.2598 33.3245 29.2598 33.8303C29.2598 34.4547 29.1139 34.9788 28.8223 35.4026C28.5352 35.8264 28.1318 36.1431 27.6123 36.3528C27.0928 36.5579 26.4867 36.6604 25.7939 36.6604C25.3656 36.6604 24.9508 36.6285 24.5498 36.5647C24.1533 36.5009 23.807 36.4234 23.5107 36.3323C23.2191 36.2411 23.0072 36.1523 22.875 36.0657L23.2373 34.8147ZM40.471 28.7581L38.0921 36.6604H36.7044L35.3098 31.5676L35.0569 30.3235L34.7835 31.5676L33.4095 36.6604H31.9807L29.6018 28.7581H31.1057L32.3636 33.4338L32.7054 34.8967L33.0198 33.4407L34.3186 28.7581H35.8157L37.1077 33.4338L37.4427 34.9241L37.7845 33.4817L39.0012 28.7581H40.471ZM43.1578 28.7717V36.551H41.6539V28.7717H43.1578ZM41.3668 26.4202C41.3668 26.2288 41.4192 26.051 41.524 25.887C41.6334 25.7229 41.7746 25.593 41.9478 25.4973C42.121 25.4016 42.2964 25.3538 42.4742 25.3538C42.7841 25.3538 43.0211 25.4403 43.1851 25.6135C43.3537 25.7867 43.438 26.0077 43.438 26.2766C43.438 26.4771 43.3856 26.6594 43.2808 26.8235C43.176 26.9875 43.0393 27.1152 42.8707 27.2063C42.702 27.2974 42.522 27.343 42.3306 27.343C42.1574 27.343 41.9979 27.3066 41.8521 27.2336C41.7063 27.1562 41.5878 27.0468 41.4966 26.9055C41.4101 26.7642 41.3668 26.6025 41.3668 26.4202ZM54.2733 28.6418C54.8156 28.6418 55.2485 28.7398 55.5721 28.9358C55.8957 29.1318 56.1327 29.4508 56.283 29.8928C56.438 30.3303 56.5155 30.9228 56.5155 31.6702V36.551H55.0116V31.6907C55.0116 31.2349 54.9751 30.8795 54.9022 30.6243C54.8293 30.3645 54.6903 30.1754 54.4852 30.0569C54.2801 29.9338 53.9816 29.8814 53.5897 29.8997C53.3117 29.9088 52.9972 29.9771 52.6463 30.1047C52.2954 30.2278 51.9741 30.3918 51.6825 30.5969C51.7235 30.9114 51.744 31.2691 51.744 31.6702V36.551H50.2401V31.6907C50.2401 31.2349 50.2013 30.8795 50.1239 30.6243C50.051 30.3645 49.912 30.1754 49.7069 30.0569C49.5018 29.9338 49.2056 29.8814 48.8182 29.8997C48.5493 29.9088 48.2349 29.9771 47.8748 30.1047C47.5194 30.2278 47.1958 30.3964 46.9041 30.6106V36.551H45.4002V28.7717H46.7401L46.7469 29.592C47.0978 29.3551 47.5148 29.1409 47.9979 28.9495C48.4855 28.7581 48.9618 28.6555 49.4266 28.6418C49.9416 28.6282 50.3586 28.6988 50.6776 28.8538C51.0011 29.0042 51.2472 29.2571 51.4159 29.6125C51.7622 29.3528 52.1997 29.1272 52.7284 28.9358C53.2616 28.7398 53.7765 28.6418 54.2733 28.6418ZM62.0326 27.3225V26.1467H70.0785V27.3225H66.8178V36.551H65.2797V27.3225H62.0326ZM77.2497 31.5881C77.2497 31.9573 77.2451 32.2444 77.236 32.4495C77.2269 32.65 77.2064 32.8277 77.1745 32.9827H72.3688C72.3734 33.0146 72.3757 33.0601 72.3757 33.1194C72.4531 34.7236 73.2461 35.5256 74.7546 35.5256C75.028 35.5256 75.3744 35.4823 75.7936 35.3958C76.2129 35.3092 76.5137 35.2112 76.696 35.1018L76.9831 35.9631C76.7324 36.1682 76.3519 36.3368 75.8415 36.469C75.3311 36.5966 74.8343 36.6604 74.3512 36.6604C73.6175 36.6604 72.9932 36.5032 72.4782 36.1887C71.9632 35.8697 71.5713 35.4094 71.3024 34.8079C71.0335 34.2063 70.8991 33.484 70.8991 32.6409C70.8991 31.8752 71.0313 31.1939 71.2956 30.5969C71.5645 29.9999 71.9587 29.5305 72.4782 29.1887C73.0023 28.8424 73.6358 28.6624 74.3786 28.6487C74.9027 28.6396 75.3789 28.7467 75.8073 28.97C76.2357 29.1933 76.5775 29.5282 76.8327 29.9749C77.0925 30.4215 77.2315 30.9592 77.2497 31.5881ZM75.8415 31.9846C75.8506 31.8388 75.8552 31.7317 75.8552 31.6633C75.8552 31.0846 75.7367 30.6152 75.4997 30.2551C75.2673 29.8951 74.8662 29.7151 74.2966 29.7151C73.7907 29.7151 73.3692 29.8951 73.0319 30.2551C72.6992 30.6106 72.4919 31.1871 72.4098 31.9846H75.8415ZM81.4951 28.6418C82.0966 28.6418 82.5979 28.7102 82.999 28.8469C83.4 28.9836 83.7122 29.2343 83.9355 29.5989C84.1588 29.9589 84.2705 30.467 84.2705 31.1233V36.6604H83.6552C83.4502 36.6604 83.2952 36.6467 83.1904 36.6194C83.0856 36.592 83.0035 36.5282 82.9443 36.428C82.8851 36.3277 82.8554 36.1682 82.8554 35.9495V35.8948C82.6276 36.1044 82.3131 36.2844 81.9121 36.4348C81.5156 36.5852 81.1009 36.6604 80.6679 36.6604C80.2076 36.6604 79.7952 36.5715 79.4306 36.3938C79.0706 36.2161 78.788 35.9631 78.583 35.635C78.3824 35.3023 78.2822 34.9127 78.2822 34.4661C78.2822 33.9739 78.4143 33.5478 78.6787 33.1877C78.9476 32.8277 79.3213 32.5497 79.7998 32.3538C80.2236 32.1851 80.7021 32.0598 81.2353 31.9778C81.7731 31.8912 82.2835 31.8479 82.7666 31.8479V31.0618C82.7666 30.6972 82.7073 30.4237 82.5888 30.2415C82.4749 30.0592 82.3017 29.9361 82.0693 29.8723C81.8369 29.8085 81.5156 29.7766 81.1054 29.7766C80.8867 29.7766 80.6338 29.8062 80.3466 29.8655C80.0641 29.9247 79.7975 29.9999 79.5468 30.0911C79.3007 30.1777 79.1185 30.262 79 30.344L78.6308 29.3596C78.7493 29.2867 78.9635 29.1933 79.2734 29.0793C79.5879 28.9654 79.9433 28.8652 80.3398 28.7786C80.7408 28.6874 81.1259 28.6418 81.4951 28.6418ZM81.1123 35.5393C81.3265 35.5393 81.552 35.5074 81.789 35.4436C82.026 35.3798 82.2334 35.3046 82.4111 35.218C82.5934 35.1269 82.7119 35.0494 82.7666 34.9856V32.8049C82.4339 32.8049 82.0579 32.8368 81.6386 32.9006C81.2239 32.9644 80.889 33.0579 80.6338 33.1809C80.3558 33.3131 80.1416 33.468 79.9912 33.6458C79.8408 33.8235 79.7656 34.0536 79.7656 34.3362C79.7656 35.1383 80.2145 35.5393 81.1123 35.5393ZM95.1741 28.6418C95.7164 28.6418 96.1493 28.7398 96.4729 28.9358C96.7965 29.1318 97.0334 29.4508 97.1838 29.8928C97.3388 30.3303 97.4162 30.9228 97.4162 31.6702V36.551H95.9123V31.6907C95.9123 31.2349 95.8759 30.8795 95.803 30.6243C95.7301 30.3645 95.5911 30.1754 95.386 30.0569C95.1809 29.9338 94.8824 29.8814 94.4905 29.8997C94.2125 29.9088 93.898 29.9771 93.5471 30.1047C93.1962 30.2278 92.8749 30.3918 92.5832 30.5969C92.6243 30.9114 92.6448 31.2691 92.6448 31.6702V36.551H91.1409V31.6907C91.1409 31.2349 91.1021 30.8795 91.0246 30.6243C90.9517 30.3645 90.8127 30.1754 90.6077 30.0569C90.4026 29.9338 90.1064 29.8814 89.719 29.8997C89.4501 29.9088 89.1356 29.9771 88.7756 30.1047C88.4202 30.2278 88.0966 30.3964 87.8049 30.6106V36.551H86.301V28.7717H87.6409L87.6477 29.592C87.9986 29.3551 88.4156 29.1409 88.8987 28.9495C89.3863 28.7581 89.8625 28.6555 90.3274 28.6418C90.8424 28.6282 91.2593 28.6988 91.5784 28.8538C91.9019 29.0042 92.148 29.2571 92.3166 29.6125C92.663 29.3528 93.1005 29.1272 93.6291 28.9358C94.1623 28.7398 94.6773 28.6418 95.1741 28.6418Z" fill="white"/>
</svg>
