<svg width="64" height="64" viewBox="0 0 64 64" fill="none" xmlns="http://www.w3.org/2000/svg">
<rect opacity="0.25" width="64" height="64" fill="white"/>
<path d="M26.4082 21.7463C26.5367 21.6154 26.6894 21.5115 26.8575 21.4406C27.0256 21.3697 27.2058 21.3332 27.3878 21.3332C27.5698 21.3332 27.75 21.3697 27.9181 21.4406C28.0862 21.5115 28.2388 21.6154 28.3674 21.7463L37.6763 31.2067C37.7789 31.3107 37.8603 31.4344 37.9159 31.5704C37.9714 31.7065 38 31.8524 38 31.9997C38 32.147 37.9714 32.2929 37.9159 32.429C37.8603 32.5651 37.7789 32.6887 37.6763 32.7928L28.3674 42.2531C27.825 42.8043 26.9506 42.8043 26.4082 42.2531C25.8658 41.7019 25.8658 40.8133 26.4082 40.2621L34.5327 32.0053L26.3971 23.7374C25.8658 23.1862 25.8658 22.2975 26.4082 21.7463Z" fill="white"/>
</svg>
