<svg width="22" height="22" viewBox="0 0 22 22" fill="none" xmlns="http://www.w3.org/2000/svg">
<path d="M13.7419 0.083009C13.8404 0.082833 13.9381 0.102084 14.0292 0.139662C14.1203 0.177239 14.2031 0.232406 14.2729 0.302009L21.6979 7.72701C21.8385 7.86765 21.9175 8.05839 21.9175 8.25726C21.9175 8.45613 21.8385 8.64686 21.6979 8.78751C20.9779 9.50751 20.0899 9.66951 19.4434 9.66951C19.1779 9.66951 18.9409 9.64251 18.7534 9.61101L14.0524 14.312C14.1761 14.8106 14.2564 15.319 14.2924 15.8315C14.3614 16.8845 14.2444 18.362 13.2124 19.394C13.0717 19.5346 12.881 19.6136 12.6821 19.6136C12.4833 19.6136 12.2925 19.5346 12.1519 19.394L7.90838 15.152L3.13538 19.925C2.84288 20.2175 1.30688 21.278 1.01438 20.9855C0.721885 20.693 1.78238 19.1555 2.07488 18.8645L6.84788 14.0915L2.60588 9.84801C2.46528 9.70736 2.38629 9.51663 2.38629 9.31776C2.38629 9.11889 2.46528 8.92815 2.60588 8.78751C3.63788 7.75551 5.11538 7.63701 6.16838 7.70751C6.68087 7.74342 7.18928 7.82372 7.68788 7.94751L12.3889 3.24801C12.3496 3.01958 12.3296 2.78828 12.3289 2.55651C12.3289 1.91151 12.4909 1.02351 13.2124 0.302009C13.3529 0.161806 13.5434 0.0830512 13.7419 0.083009Z" fill="#163977"/>
</svg>
