<svg width="64" height="64" viewBox="0 0 64 64" fill="none" xmlns="http://www.w3.org/2000/svg">
<rect opacity="0.25" width="64" height="64" fill="white"/>
<path d="M37.5918 21.7463C37.4633 21.6154 37.3106 21.5115 37.1425 21.4406C36.9744 21.3697 36.7942 21.3332 36.6122 21.3332C36.4302 21.3332 36.25 21.3697 36.0819 21.4406C35.9138 21.5115 35.7612 21.6154 35.6326 21.7463L26.3237 31.2067C26.2211 31.3107 26.1397 31.4344 26.0841 31.5704C26.0286 31.7065 26 31.8524 26 31.9997C26 32.147 26.0286 32.2929 26.0841 32.429C26.1397 32.5651 26.2211 32.6887 26.3237 32.7928L35.6326 42.2531C36.175 42.8043 37.0494 42.8043 37.5918 42.2531C38.1342 41.7019 38.1342 40.8133 37.5918 40.2621L29.4673 32.0053L37.6029 23.7374C38.1342 23.1862 38.1342 22.2975 37.5918 21.7463Z" fill="white"/>
</svg>
